<?xml version="1.0" encoding="utf-8"?>
<!-- Generator: Adobe Illustrator 21.1.0, SVG Export Plug-In . SVG Version: 6.00 Build 0)  -->
<svg version="1.1" id="Layer_1" xmlns="http://www.w3.org/2000/svg" xmlns:xlink="http://www.w3.org/1999/xlink" x="0px" y="0px"
	 viewBox="0 0 1024 1024" style="enable-background:new 0 0 1024 1024;" xml:space="preserve">
<style type="text/css">
	.st0{fill:#3C3C3C;}
</style>
<path class="st0" d="M770.8,941.3H253.2c-13.3,0-24.1-10.8-24.1-24.1V399.7c0-13.3,10.8-24.1,24.1-24.1h517.6
	c13.3,0,24.1,10.8,24.1,24.1v517.6C794.9,930.5,784.1,941.3,770.8,941.3z"/>
<path class="st0" d="M134.1,502.8h755.9c20.6,0,30.9-25,16.2-39.5l-377.9-374c-9-8.9-23.5-8.9-32.4,0l-377.9,374
	C103.2,477.8,113.5,502.8,134.1,502.8z"/>
<path class="st0" d="M732.8,386.5H688c-9.2,0-16.7-7.5-16.7-16.7V203.4c0-9.2,7.5-16.7,16.7-16.7h44.8c9.2,0,16.7,7.5,16.7,16.7
	v166.4C749.5,379,742,386.5,732.8,386.5z"/>
</svg>
