<?xml version="1.0" encoding="utf-8"?>
<!-- Generator: Adobe Illustrator 21.1.0, SVG Export Plug-In . SVG Version: 6.00 Build 0)  -->
<svg version="1.1" id="Layer_1" xmlns="http://www.w3.org/2000/svg" xmlns:xlink="http://www.w3.org/1999/xlink" x="0px" y="0px"
	 viewBox="0 0 829.8 829.8" style="enable-background:new 0 0 829.8 829.8;" xml:space="preserve">
<style type="text/css">
	.st0{fill:#3C3C3C;}
</style>
<g>
	<g>
		<path class="st0" d="M829.8,414.4c0.2,229.1-185.4,415.2-414.4,415.4C186.3,830,0.2,644.3,0,415.4C-0.2,186,185.7-0.1,415.1,0
			C643.8,0.1,829.6,185.7,829.8,414.4z M289.7,755.7c0.2,1.8,1.2,2.8,3,2.7c0.8,0.7,1.5,1.3,2.3,2c0.4,1.6,1.5,2.3,3.1,2.3
			c6.9,4.4,13.8,8.8,20.7,13.1c0.7,1.6,2,2.1,3.6,1.8c0.6,0.3,1.3,0.7,2,1c0.7,1.6,2,2.2,3.7,1.8c32.4,14.5,66.5,21.5,101.8,22.6
			c65.4,1.9,126.5-14.2,183.5-46c123.5-68.8,200.7-206.4,188.5-344.4c-3.4-38.4-13.2-74.8-34.5-107.5c-27.6-42.4-65.5-54.5-112.5-36
			c-23.9,9.4-45,23.4-65.3,38.8c-61.4,46.5-116.5,99.8-170.1,154.8c-41.3,42.2-81.3,85.6-116,133.5c-8.4,7.2-6.6,16.5,4.4,22.5l0,0
			c1.4,5.9,5.6,2.6,8.9,2.8c4.1,0.2,8.1-4,12.1-0.1c-1.2,2.1-2.7,3.7-5.2,4.2c-11.3,2.3-10,12-11.8,19.9c-6.5,1.1-7.4-4.7-8.9-8.3
			c-1.4-3.2-3.3-5.1-5.7-4.1c-3.5,1.5-6.5,0.8-9.8,0.2c-5.7-1-10,1.2-12.5,6.6c-2.7,5.7-5.9,11.2-8,17c-8.1,22.1-12.3,44.6-2.1,67.2
			c3.7,8.1,6.9,16.8,15.3,21.8l0,0C281.4,750.9,284.8,754,289.7,755.7L289.7,755.7z M550.6,82.6c-0.9-1.7-1.1-2.4-1.6-2.8
			c-1.6-1.7-3.2-3.4-4.9-4.9c-21.3-19.6-46.8-31.2-74.3-38.8c-50.2-14-100.8-13.6-151.6-2.9C178.8,62.7,64.9,175.2,33.9,314.7
			C20.6,374.2,21.5,433.2,43,491c8.8,23.6,21.2,45.2,40.6,62c28.3,24.5,59.3,24.3,92.3,10.3c4.2-1.8,5-4.6,1.9-8.1
			c-4.2-4.7-8.4-9.3-12.8-13.7c-14.1-14-27.2-28.8-36.3-46.7c-18.6-36.7-27.7-76-27.7-116.8c-0.1-132,62.4-226.7,177.6-286.7
			C356.5,50.6,438.6,47.8,522,73.6C531.3,76.5,540.5,79.4,550.6,82.6z M238.6,503.2c-0.1,1.2-0.5,2.4-0.3,3.5
			c0.8,4.7-0.8,11.1,4,13.4c4.4,2.1,7.8-3.2,11.1-5.8c68.7-54.9,130.9-116.7,191-180.6c8.8-9.4,8.3-11.1-4.6-14.2
			c-16.9-4.1-34.2-4.6-51.4-4.6c-68-0.1-122.8,55.4-136.9,105.7C243.8,447.6,242.1,475.5,238.6,503.2z"/>
		<path class="st0" d="M600.3,675.7c-0.6,0.3-1.3,0.7-1.9,1c-1.7-0.3-3,0.2-3.6,1.9c-1.6,0.8-3.2,1.5-4.8,2.3
			c-2.8-0.5-4.9,0.5-6.6,2.7c-3.4,1.4-6.8,2.9-10.2,4.3c-10.2,1.7-19.9,4.8-29,9.7c-0.9,0.2-1.7,0.4-2.6,0.7c-2.6-1.3-5,0.1-7.4,0.6
			c-28,6-56.2,9.7-85,7c-1.7-0.2-3.3-0.1-4.1,1.7c-1.4,0-2.7,0-4.1,0c-1.5-2.4-3.9-2-6.2-2.3c-22.5-2.4-45.1-5.7-65.9-14.8
			c-12.9-5.6-27.3-9.9-36-22.7c-0.7-3.6-2.2-5.5-5.8-2.7c-1.3-2-2.6-3.9-3.9-5.9c0.3-4.2-1.7-6-5.8-5.7c0-0.8,0-1.5,0-2.3
			c0.6-4.2-1-6.5-5.5-6l-0.1,0.1c1.8-7.9,0.5-17.7,11.8-20c2.5-0.5,4-2.1,5.2-4.2c0,0,0.5,0,0.5,0l0.5,0c2.4,1.2,4.8,2.3,6-1.5
			c2.3-0.9,4.5-1.7,6.8-2.6c1.9,2.3,3.7,4.3,5.7,0c11-4.5,23.2-3.1,34.4-7c2.8-1,5.9-1.3,8.9-1.5c10.7-0.8,20.7-4.3,30.9-7.2
			c12.4-3.5,23.4-10.1,34.2-16.8c6.5-4,13.7-7.8,17.4-15.3l0,0c6.7-2.7,11.4-7.4,14.1-14.1c0.7-0.8,1.4-1.5,2.1-2.3
			c6.6-4.6,11.3-10.6,13.5-18.4c1-1.4,2-2.7,3-4.1c1.7-0.5,2.5-1.6,2.4-3.4c0.1-0.4,0.3-0.6,0.6-0.8c2.4-1,4.7-2.1,7.1-3.1
			c3.1,1.5,6.3,3.1,9.4,4.6c0.6,1.7,1.9,2.3,3.6,2c0.7,0.3,1.3,0.6,2,0.8c0.5,1.6,1.7,2.4,3.4,2.2c32.4,17.1,62.7,36.9,84.8,66.8
			c9.9,13.3,15.2,28.7,15.7,45.5c0.2,5.1-1.5,8.8-5.7,11.8c-7.6,5.3-14.9,11.1-23.4,15.2C603.8,672.2,601.5,673,600.3,675.7z"/>
		<path class="st0" d="M332.9,667.9c8.6,12.8,23.1,17.1,36,22.7c20.8,9.1,43.3,12.4,65.9,14.8c2.3,0.2,4.8-0.2,6.2,2.3
			c-5.6,2.2-11.1,0-16.5-0.6c-21.3-2.4-42.4-6.8-62.3-14.9c-16.8-6.9-31.6-17.2-45.4-29.1c-8.8-7.6-17-16.4-28.3-20.8
			c-9.4-3.6-11.6-2.9-15.7,6.2c-7.7,17.5-13,35.5-10.9,54.9c1.5,13.5,6.4,25.7,14.5,36.6c1.4,1.8,3.2,3.4,3.6,5.9
			c-8.4-4.9-11.6-13.6-15.3-21.8c-10.2-22.6-6.1-45.1,2.1-67.2c2.2-5.9,5.4-11.4,8-17c2.5-5.4,6.8-7.6,12.5-6.6
			c3.3,0.6,6.3,1.2,9.8-0.2c2.4-1,4.4,0.9,5.7,4.1c1.5,3.6,2.5,9.4,8.9,8.3c0,0,0.1-0.1,0.1-0.1c-0.7,4.4,0.9,6.6,5.5,6
			c0,0.8,0,1.5,0,2.3c0,3.8,1.9,5.8,5.8,5.7c1.3,2,2.6,3.9,3.9,5.9C328.2,667.8,330.6,667.7,332.9,667.9z"/>
		<path class="st0" d="M342.7,617.1c-2.3,0.9-4.5,1.7-6.8,2.6c-3.2-4.5-4.2,0.4-6,1.5l-0.5,0c0,0-0.5,0-0.5,0
			c-4.1-3.9-8.1,0.3-12.1,0.1c-3.2-0.1-7.5,3.1-8.9-2.8c-11-6-12.8-15.3-4.4-22.5c0,8.7,8.2,15,20,15.9c12.5,0.9,25.1,0,37.1-2.4
			c14.9-2.9,30-3.8,44.8-7c23.7-5.1,44.8-14.9,63.6-30c1.6-1.3,2.9-3,5.2-3.4c-3.7,7.5-10.8,11.3-17.4,15.3
			c-10.8,6.7-21.8,13.3-34.2,16.8c-10.2,2.9-20.2,6.5-30.9,7.2c-3,0.2-6.1,0.6-8.9,1.5c-11.2,3.9-23.4,2.4-34.4,7
			C346.5,616,344.6,615.5,342.7,617.1z"/>
		<path class="st0" d="M280,745.8c4.1,2.5,7.1,6,9.8,9.9C284.8,754,281.4,750.9,280,745.8z"/>
		<path class="st0" d="M289.7,755.7c1.5,0.3,2.5,1.3,3,2.7C290.9,758.4,290,757.4,289.7,755.7z"/>
		<path class="st0" d="M295.1,760.4c1.5,0.2,2.7,0.8,3.1,2.3C296.6,762.7,295.5,762,295.1,760.4z"/>
		<path class="st0" d="M318.8,775.8c1.5,0.1,2.7,0.6,3.6,1.8C320.8,778,319.5,777.5,318.8,775.8z"/>
		<path class="st0" d="M324.4,778.6c1.5,0.1,2.7,0.6,3.7,1.8C326.4,780.8,325.2,780.3,324.4,778.6z"/>
		<path class="st0" d="M445,707.7c0.9-1.8,2.4-1.9,4.1-1.7c28.7,2.7,56.9-1,85-7c2.4-0.5,4.8-1.9,7.4-0.6c-15.6,5.8-32,7.5-48.3,9.3
			c-14.3,1.7-28.7,1.7-43.1,1.4C448.4,709,446.5,709.1,445,707.7z"/>
		<path class="st0" d="M544.2,697.7c9.1-4.9,18.8-8,29-9.7C564,692.5,554.4,696,544.2,697.7z"/>
		<path class="st0" d="M503.8,534.5c-2.2,7.8-6.9,13.8-13.5,18.4C494.4,546.5,498.5,540.1,503.8,534.5z"/>
		<path class="st0" d="M488.2,555.3c-2.7,6.7-7.4,11.4-14.1,14.1C478.2,564.1,482.8,559.3,488.2,555.3z"/>
		<path class="st0" d="M516.7,523.2c-2.4,1-4.7,2.1-7.1,3.1C511.2,523.4,511.9,518.6,516.7,523.2z"/>
		<path class="st0" d="M600.3,675.7c1.2-2.7,3.5-3.5,6.2-3.5C605,674.4,602.8,675.2,600.3,675.7z"/>
		<path class="st0" d="M583.4,683.6c1.6-2.2,3.8-3.2,6.6-2.7C588.1,682.5,586,683.8,583.4,683.6z"/>
		<path class="st0" d="M509.1,527.1c0.1,1.8-0.6,2.9-2.4,3.4C506.8,528.9,507.6,527.8,509.1,527.1z"/>
		<path class="st0" d="M529.7,529.8c-1.7,0.3-3-0.3-3.6-2C527.7,527.9,528.8,528.7,529.7,529.8z"/>
		<path class="st0" d="M535.1,532.9c-1.7,0.2-2.8-0.6-3.4-2.2C533.3,530.7,534.4,531.5,535.1,532.9z"/>
		<path class="st0" d="M594.7,678.6c0.6-1.7,1.9-2.3,3.6-1.9C597.4,677.8,596.3,678.6,594.7,678.6z"/>
		<path class="st0" d="M317.4,651.3c-4.7,0.6-6.3-1.6-5.5-6C316.4,644.9,317.9,647.1,317.4,651.3z"/>
		<path class="st0" d="M323.2,659.3c-3.9,0-5.8-1.9-5.8-5.7C321.5,653.3,323.5,655.2,323.2,659.3z"/>
		<path class="st0" d="M329.9,621.2c1.9-1.1,2.8-6,6-1.5C334.7,623.5,332.3,622.4,329.9,621.2z"/>
		<path class="st0" d="M332.9,667.9c-2.3-0.2-4.7-0.1-5.8-2.7C330.7,662.5,332.2,664.4,332.9,667.9z"/>
		<path class="st0" d="M342.7,617.1c1.9-1.7,3.8-1.1,5.7,0C346.5,621.4,344.6,619.4,342.7,617.1z"/>
	</g>
	<path class="st0" d="M306.9,598.5c19.3,6.9,118.7,35.6,201.3-75.1c1.6-2.2,4.6-3,7.1-1.9c30.7,12.7,132,67.9,120.4,130
		c-1.3,6.9-180,136.8-324,7.9c-30.9-16.3-16.8-7.9-33.8-18c-13.9-8.2,13.6-33.3,22.9-41.7C302.4,598.2,304.8,597.7,306.9,598.5z"/>
	<path class="st0" d="M306.9,598.5c15.5,5.6,82.6,25.2,151.3-24.7c52.5-38.1,126.4-27,163.5,26.2c11.2,16,17.3,33.4,13.9,51.5
		c-1.3,6.7-173.3,131.9-315.8,14.9c-6.1-5-12.8-9.5-19.8-13.1c-15.6-8-7.8-3.4-22.1-11.9c-13.9-8.2,13.6-33.3,22.9-41.7
		C302.4,598.2,304.8,597.7,306.9,598.5z"/>
	<path class="st0" d="M277.2,741.2c0,0,39,40.8,83.7,51.5C360.9,792.7,260.6,779.2,277.2,741.2z"/>
	<path class="st0" d="M305.9,592.2c0,0-4.2,5.1,5.5,7.8l-12.5,7.6l-0.8-13.3L305.9,592.2z"/>
	<path class="st0" d="M277.9,641.4c0,0,18.3,17.7,81,50.9s-74-56.4-74-56.4L277.9,641.4z"/>
</g>
</svg>
