<?xml version="1.0" encoding="utf-8"?>
<!-- Generator: Adobe Illustrator 21.1.0, SVG Export Plug-In . SVG Version: 6.00 Build 0)  -->
<svg version="1.1" id="Layer_1" xmlns="http://www.w3.org/2000/svg" xmlns:xlink="http://www.w3.org/1999/xlink" x="0px" y="0px"
	 viewBox="0 0 829.8 829.8" style="enable-background:new 0 0 829.8 829.8;" xml:space="preserve">
<style type="text/css">
	.st0{fill:#3C3C3C;}
</style>
<path class="st0" d="M415.1,0C185.8-0.1-0.2,186,0,415.4C0.2,644.3,186.3,830,415.4,829.8c228.9-0.2,414.6-186.3,414.4-415.4
	C829.6,185.7,643.8,0.1,415.1,0z M128.7,494.7c9.1,18,22.2,32.7,36.2,46.7c4.4,4.4,8.7,9.1,12.8,13.7c3.1,3.5,2.3,6.3-1.9,8.1
	c-33.1,14-64,14.2-92.3-10.2c-19.4-16.8-31.8-38.3-40.6-62c-21.5-57.8-22.4-116.8-9.1-176.3c31-139.5,144.9-252,284.3-281.5
	c50.8-10.8,101.4-11.1,151.6,2.9c27.5,7.6,53,19.2,74.3,38.8c1.7,1.6,3.3,3.2,4.9,4.9c0.5,0.5,0.7,1.2,1.6,2.8
	c-10.1-3.2-19.3-6.1-28.5-9c-83.4-25.8-165.5-23-243.3,17.5c-115.2,60-177.7,154.8-177.6,286.7C101.1,418.7,110.1,457.9,128.7,494.7
	z M242.3,520.1c-4.8-2.3-3.2-8.7-4-13.4c-0.2-1.1,0.2-2.3,0.3-3.5c3.5-27.7,5.2-55.6,12.8-82.7c14.1-50.2,69-105.7,136.9-105.7
	c17.3,0,34.5,0.5,51.4,4.6c12.9,3.1,13.4,4.8,4.6,14.2c-60.1,63.9-122.3,125.7-191,180.6C250,516.9,246.7,522.2,242.3,520.1z
	 M280,745.8C280,745.8,280,745.8,280,745.8L280,745.8C280,745.8,280,745.8,280,745.8L280,745.8z M289.7,755.7L289.7,755.7
	L289.7,755.7C289.7,755.7,289.7,755.7,289.7,755.7C289.7,755.7,289.7,755.7,289.7,755.7z M613.3,757c-57,31.8-118,47.9-183.5,46
	c-31.8-0.9-62.6-6.8-92.1-18.5c-30.2-13.9-54.3-37-59.5-42.2c-0.6-0.8-1.3-1.6-1.9-2.4c-8.1-10.9-13.1-23-14.5-36.6
	c-2.1-19.4,3.1-37.4,10.8-54.9c1.7-3.8,3.1-6.1,4.8-7.3c0.1,0.1,0.2,0.2,0.4,0.2c0,0,0,0,0,0c0.6,0.5,18.4,17.3,76.7,48.6
	c0.2,0.1,0.4,0.2,0.6,0.3c0.3,0.2,0.7,0.3,1,0.5c0.9,0.5,1.8,0.9,2.6,1.4c0.3,0.2,0.6,0.3,0.9,0.5c0.2,0.1,0.5,0.3,0.8,0.4l0.1,0.1
	l0.2,0.1c0.6,0.3,1.2,0.6,1.8,0.9c0,0,0,0,0.1,0c0.7,0.3,1.4,0.7,2.1,1c0.7,0.3,1.4,0.7,2.2,1c1.2,0.6,2.4,1.1,3.7,1.7
	c0.8,0.3,1.5,0.7,2.3,1c0.5,0.2,0.9,0.4,1.4,0.6c0,0,0,0,0,0c2.1,0.9,4.2,1.7,6.3,2.5c1.2,0.5,2.4,0.9,3.6,1.3
	c0.9,0.3,1.7,0.6,2.6,0.9c0.8,0.3,1.5,0.5,2.3,0.8s1.5,0.5,2.3,0.8c2.4,0.8,4.9,1.5,7.3,2.2c0.6,0.2,1.3,0.4,1.9,0.5
	c0.7,0.2,1.5,0.4,2.2,0.6c1.6,0.4,3.1,0.8,4.7,1.1c0.6,0.1,1.1,0.3,1.7,0.4c5,1.1,9.9,2.1,14.9,2.8c0.6,0.1,1.2,0.2,1.7,0.3
	c8.5,1.2,16.9,1.9,25.2,2.1c0.7,0,1.4,0,2.1,0c17.3,0.3,34.2-1.3,50.2-4.3c1.3-0.2,2.5-0.5,3.8-0.7c6.4-1.3,12.6-2.8,18.7-4.4
	c1.2-0.3,2.3-0.6,3.5-1c2.3-0.6,4.6-1.3,6.9-2c1.1-0.3,2.2-0.7,3.2-1c5.1-1.6,10-3.3,14.8-5.1c1.2-0.5,2.4-0.9,3.5-1.4
	c0.6-0.2,1.2-0.5,1.8-0.7c1-0.4,2-0.8,3-1.2c1.9-0.8,3.7-1.5,5.6-2.3c1.1-0.5,2.2-1,3.3-1.4c0,0,0,0,0,0c1.1-0.5,2.2-1,3.2-1.4
	c0,0,0,0,0,0c4.3-1.9,8.4-3.9,12.3-5.8c0.5-0.2,1-0.5,1.5-0.7c1-0.5,1.9-1,2.8-1.5c0.6-0.3,1.3-0.6,1.9-1c1.2-0.7,2.4-1.3,3.6-1.9
	c0.4-0.2,0.9-0.5,1.3-0.7c0.9-0.5,1.7-1,2.6-1.4c0,0,0,0,0,0c0.2-0.1,0.5-0.3,0.7-0.4c0.2-0.1,0.4-0.2,0.5-0.3c0,0,0,0,0,0l0.6-0.3
	l0.6-0.3l0,0l2.4-1.4c0.1,0,0.2-0.1,0.3-0.2c0.7-0.4,1.4-0.8,2.1-1.2c1.4-0.8,2.7-1.7,4-2.5c4.8-3,9-5.7,12.4-8.2
	c0.5-0.4,1-0.7,1.5-1.1c0,0,0,0,0,0c0.4-0.3,0.7-0.5,1.1-0.8c0.2-0.1,0.4-0.3,0.6-0.4c0.3-0.3,0.7-0.5,1-0.8c0,0,0,0,0,0
	c0.3-0.2,0.6-0.5,0.9-0.7c0.3-0.2,0.5-0.4,0.8-0.6c0,0,0,0,0,0c0.5-0.4,1.1-0.9,1.5-1.2c0,0,0,0,0,0c0.5-0.4,0.9-0.8,1.3-1.1
	c0.2-0.2,0.5-0.4,0.7-0.6c0.6-0.5,1-1,1.3-1.4c0.1-0.1,0.2-0.3,0.3-0.4s0.2-0.2,0.2-0.3c0-0.1,0.1-0.2,0.1-0.3
	c0.2-0.8,0.3-1.7,0.4-2.5c0.2-1.7,0.4-3.3,0.4-5c0.2-5.4-0.3-10.7-1.6-15.9c-0.2-0.8-0.4-1.5-0.6-2.3c-0.4-1.4-0.9-2.9-1.4-4.3
	c-0.3-0.8-0.5-1.5-0.8-2.3c-0.5-1.4-1.2-2.9-1.8-4.3c-0.3-0.7-0.6-1.4-1-2c-2.2-4.4-4.8-8.7-7.7-12.9c-0.6-0.8-1.2-1.6-1.8-2.4
	c-0.3-0.4-0.6-0.8-0.8-1.1c-0.6-0.8-1.1-1.5-1.7-2.2c-28.6-36.3-81.4-64.2-102.1-72.7c-2.5-1-5.5-0.3-7.1,1.9
	c-16.7,22.4-34.2,39.1-51.5,51.5c-0.1,0.1-0.2,0.1-0.2,0.2c-0.8,0.5-1.5,1.1-2.3,1.6c-1.6,1.1-3.3,2.2-4.9,3.3
	c-1.7,1.1-3.3,2.1-5,3.1c-1.6,1-3.3,1.9-4.9,2.8c-0.8,0.5-1.6,0.9-2.4,1.3c-1.6,0.9-3.2,1.7-4.9,2.5c-0.8,0.4-1.6,0.8-2.4,1.2
	c0,0,0,0-0.1,0c-0.8,0.4-1.6,0.8-2.4,1.1c-0.8,0.4-1.6,0.7-2.4,1.1c-2.4,1.1-4.8,2.1-7.2,3c-0.8,0.3-1.6,0.6-2.3,0.9
	c-2.2,0.8-4.5,1.6-6.7,2.3c-0.4,0.1-0.7,0.2-1.1,0.3c-5.5,1.7-10.8,3.1-16.1,4.2c-1.2,0.2-2.5,0.5-3.7,0.7c-0.7,0.1-1.5,0.3-2.2,0.4
	c-2.9,0.5-5.8,0.9-8.6,1.2c-0.7,0.1-1.4,0.2-2.1,0.2c-0.7,0.1-1.4,0.1-2.1,0.2c-0.6,0.1-1.2,0.1-1.8,0.1c-0.1,0-0.2,0-0.3,0
	c-0.7,0-1.3,0.1-2,0.1c-0.7,0-1.4,0.1-2.1,0.1c-0.5,0-1,0-1.6,0.1c-0.3,0-0.6,0-0.9,0c-6,0.2-11.6,0.1-16.9-0.3
	c-1.3-0.1-2.7-0.2-3.9-0.3c-5-0.5-9.6-1.1-13.7-1.9c-2.2-0.4-4.3-0.8-6.3-1.3c-1.3-0.3-2.5-0.6-3.6-0.9c-1.3-0.3-2.6-0.7-3.8-1
	c-0.4-0.1-0.8-0.2-1.2-0.3c-0.5-0.1-1-0.3-1.5-0.4c-0.3-0.1-0.6-0.2-0.8-0.2c-0.3-0.1-0.6-0.2-0.8-0.3h0c-0.2,0-0.3-0.1-0.5-0.1
	c-0.3-0.1-0.5-0.2-0.8-0.2c-0.2-0.1-0.4-0.1-0.5-0.2c-4.6-1.7-4.9-4.1-4.5-5.6c0,0,0,0,0,0c34.3-47,73.7-89.6,114.3-131.1
	c53.6-54.9,108.8-108.3,170.1-154.8c20.3-15.4,41.5-29.4,65.3-38.8c47-18.5,84.9-6.4,112.5,36c21.3,32.6,31.1,69.1,34.5,107.5
	C814.1,550.6,736.9,688.2,613.3,757z"/>
</svg>
